<svg width="20mm" height="20mm" viewBox="0 0 20 20" fill="#f8fafc" xmlns="http://www.w3.org/2000/svg"><g transform="matrix(0.00408722,0,0,-0.00408722,1.2402229,20.425199)"><path d="m 2976,4928 c -3,-13 -8,-45 -11,-71 -24,-185 -144,-355 -343,-485 -393,-258 -1119,-328 -1667,-161 -192,59 -378,156 -484,255 -102,94 -174,227 -188,346 -3,27 -9,45 -14,41 -4,-4 -15,-45 -24,-91 -13,-64 -16,-118 -12,-235 5,-177 18,-232 82,-364 36,-73 64,-112 130,-182 163,-170 355,-274 654,-352 129,-33 393,-79 456,-79 64,0 78,-16 66,-70 -38,-163 20,-327 150,-430 68,-54 137,-73 247,-68 69,3 100,9 150,32 34,16 62,32 62,36 0,4 -24,10 -52,14 -94,12 -149,36 -199,86 -78,78 -94,118 -94,232 0,64 4,101 12,109 17,17 214,-19 345,-61 233,-77 468,-253 555,-415 36,-68 76,-212 71,-258 -3,-29 -7,-31 -63,-43 -64,-12 -134,-41 -199,-82 l -38,-24 60,-39 c 87,-57 175,-155 217,-244 20,-41 40,-75 45,-75 10,0 118,166 169,262 87,160 160,391 182,568 21,171 -7,392 -72,577 -39,111 -58,148 -127,251 l -55,82 36,73 c 63,126 82,212 81,372 0,117 -4,157 -27,247 -24,99 -83,268 -93,268 -2,0 -6,-10 -8,-22 z"/><path d="M 501,3554 C 341,3278 245,2999 206,2695 183,2524 185,2230 209,2065 281,1580 488,1160 830,807 1362,258 2164,29 2904,215 c 281,71 447,164 668,374 97,92 185,200 153,188 -118,-46 -696,-60 -925,-23 -432,70 -800,230 -1164,506 -53,40 -31,38 51,-6 405,-216 880,-330 1323,-320 362,9 596,72 792,213 116,84 219,213 258,327 60,171 45,460 -36,688 -51,145 -144,324 -144,280 0,-21 -147,-226 -222,-310 -188,-210 -459,-397 -710,-491 -195,-74 -496,-118 -728,-107 -306,14 -651,133 -880,304 -399,297 -621,606 -739,1027 -43,152 -55,270 -54,533 1,127 1,232 0,232 -1,0 -22,-34 -46,-76 z"/></g></svg>